<?xml version="1.0" encoding="utf-8"?>
<!-- Generator: Adobe Illustrator 26.0.1, SVG Export Plug-In . SVG Version: 6.00 Build 0)  -->
<svg version="1.1" id="Layer_1" xmlns="http://www.w3.org/2000/svg" xmlns:xlink="http://www.w3.org/1999/xlink" x="0px" y="0px"
	 viewBox="0 0 452.6 73" style="enable-background:new 0 0 452.6 73;" xml:space="preserve">
<style type="text/css">
	.st0{fill:#FF7300;}
</style>
<g>
	<g>
		<g>
			<path class="st0" d="M80,26c1.6,1.6,1.6,4.2,0,5.8L63.4,48.2L53,38c-1.6-1.6-1.6-4.1,0-5.7c1.6-1.6,4.1-1.6,5.7,0l4.7,4.6
				L74.3,26C75.9,24.4,78.4,24.4,80,26z"/>
		</g>
		<g>
			<path class="st0" d="M65.2,0.2H36.3c-10,0-19.1,4.1-25.7,10.6C4.1,17.4,0,26.5,0,36.5c0,20.1,16.2,36.3,36.3,36.3h28.9
				c10,0,19.1-4.1,25.7-10.6c6.6-6.6,10.6-15.7,10.6-25.7C101.5,16.4,85.3,0.2,65.2,0.2z M65.4,64.5c-15.5,0-28-12.5-28-28
				c0-15.5,12.5-28,28-28s28,12.5,28,28C93.4,52,80.9,64.5,65.4,64.5z"/>
		</g>
	</g>
	<g>
		<g>
			<path d="M133,8.5h-5.8c-0.6,0-1.1,0.5-1.1,1.1v53.8c0,0.6,0.5,1.1,1.1,1.1h5.8c0.6,0,1.1-0.5,1.1-1.1V9.6
				C134.1,9,133.6,8.5,133,8.5z"/>
		</g>
		<g>
			<path d="M160.7,23.2c-11.4,0-20.6,9.4-20.6,21.2c0,12,8.4,21.1,21.2,21.1c9,0,14.4-3.6,17.6-8.4c0.4-0.5,0.2-1.3-0.3-1.6
				l-4.7-2.9c-0.5-0.4-1.3-0.1-1.6,0.4c-1.9,3.5-5.2,5.3-10.7,5.3c-6.3,0-11.4-3.7-13-9.8c-0.2-0.7,0.4-1.4,1.1-1.4h30.1
				c0.6,0,1.1-0.5,1.1-1.1c0-0.7,0.1-1.7,0.1-2.5C181,33,173.2,23.2,160.7,23.2z M171.6,40.8h-21.9c-0.7,0-1.3-0.7-1.1-1.4
				c1.6-6.1,6.6-9.6,12.4-9.6c5.8,0,10.2,3.7,11.7,9.7C172.9,40.2,172.3,40.8,171.6,40.8z"/>
		</g>
		<g>
			<path d="M208,23.2c-6,0-10.6,2.5-13.3,6.1v-4c0-0.6-0.5-1.1-1.1-1.1h-5.4c-0.6,0-1.1,0.5-1.1,1.1v38.1c0,0.6,0.5,1.1,1.1,1.1h5.9
				c0.6,0,1.1-0.5,1.1-1.1V39.9c0.1-5,4.5-9.4,10.6-9.4c6.4-0.1,10.4,3.9,10.4,10.6v22.3c0,0.6,0.5,1.1,1.1,1.1h5.8
				c0.6,0,1.1-0.5,1.1-1.1V39.6C224.2,29.7,218.1,23.2,208,23.2z"/>
		</g>
		<g>
			<path d="M270.8,8.5h-5.8c-0.6,0-1.1,0.5-1.1,1.1v20.1c-3.2-4.1-8-6.4-13.9-6.4c-11.5,0-19.7,9-19.7,21c0,12.1,8.3,21.2,19.9,21.2
				c6.1,0,11.1-2.7,14.3-7.2v5.1c0,0.6,0.5,1.1,1.1,1.1h5.2c0.6,0,1.1-0.5,1.1-1.1V9.6C271.9,9,271.4,8.5,270.8,8.5z M251.2,58.2
				c-7.4,0-12.9-5.9-12.9-14c0-7.9,5.5-13.9,12.9-13.9c7.8,0,13,5.8,13,13.9C264.1,52.5,258.8,58.2,251.2,58.2z"/>
		</g>
		<g>
			<path d="M325.7,23.2c-7.1,0-11.9,3.4-14,7.4c-2.3-4.7-6.6-7.4-13.3-7.4c-5.8,0-10.2,2.7-12.7,6.1v-4c0-0.6-0.5-1.1-1.1-1.1h-5.4
				c-0.6,0-1.1,0.5-1.1,1.1v38.1c0,0.6,0.5,1.1,1.1,1.1h5.8c0.6,0,1.1-0.5,1.1-1.1V39.5c0.1-4.3,3.8-9,9.9-9
				c6.1-0.1,9.7,4.4,9.7,10.5v22.4c0,0.6,0.5,1.1,1.1,1.1h5.8c0.6,0,1.1-0.5,1.1-1.1V39.5c0.1-4.2,3.7-9,9.9-9
				c6.1-0.1,9.7,4.4,9.7,10.5v22.4c0,0.6,0.5,1.1,1.1,1.1h5.8c0.6,0,1.1-0.5,1.1-1.1V39.5C341.3,30.3,335.7,23.2,325.7,23.2z"/>
		</g>
		<g>
			<path d="M368.4,23.2c-6,0-10.6,2.5-13.3,6.1v-4c0-0.6-0.5-1.1-1.1-1.1h-5.4c-0.6,0-1.1,0.5-1.1,1.1v38.1c0,0.6,0.5,1.1,1.1,1.1
				h5.8c0.6,0,1.1-0.5,1.1-1.1V39.9c0.1-5,4.5-9.4,10.6-9.4c6.4-0.1,10.4,3.9,10.4,10.6v22.3c0,0.6,0.5,1.1,1.1,1.1h5.9
				c0.6,0,1.1-0.5,1.1-1.1V39.6C384.6,29.7,378.5,23.2,368.4,23.2z"/>
		</g>
	</g>
</g>
</svg>
